<?xml version="1.0" encoding="utf-8"?>
<!-- Generator: Adobe Illustrator 18.0.0, SVG Export Plug-In . SVG Version: 6.00 Build 0)  -->
<!DOCTYPE svg PUBLIC "-//W3C//DTD SVG 1.1//EN" "http://www.w3.org/Graphics/SVG/1.1/DTD/svg11.dtd">
<svg version="1.1" xmlns="http://www.w3.org/2000/svg" xmlns:xlink="http://www.w3.org/1999/xlink" x="0px" y="0px"
	 viewBox="0 0 50 50" enable-background="new 0 0 50 50" xml:space="preserve">
<g id="Layer_1" display="none">
	<g display="inline">
		<path fill="none" stroke="#000000" stroke-width="2" stroke-linecap="round" stroke-linejoin="round" stroke-miterlimit="10" d="
			M-11.8,25.2c0,7.9,0,15.8,0,23.7c1.9-0.1,9.7,0.4,12.2,0.1c0-15.8,0.8-33,0.8-49c4.1,0,7,0,11.1,0c0,16,0.3,33.2,0.3,49.3
			c4.1,0,8,0,12.1,0c0-16.1,0-32.1,0-48.3c4.1,0,8.1,0,12.2,0c0,16,0,31.8,0,47.9c4.1,0,8.1,0,12.2,0c0-7.8,0-15.7,0-23.7"/>
		<path fill="none" stroke="#000000" stroke-width="2" stroke-linecap="round" stroke-linejoin="round" stroke-miterlimit="10" d="
			M-11.8,24.6c0-7.8,0-15.7,0-23.6c-4.1,0-8.1,0-12.1,0c0,7.8,0,15.5,0,23.2"/>
		<path fill="none" stroke="#000000" stroke-width="2" stroke-linecap="round" stroke-linejoin="round" stroke-miterlimit="10" d="
			M59.5,24.6c-8.2,0-14.2,0-22.4,0"/>
		<path fill="none" stroke="#000000" stroke-width="2" stroke-linecap="round" stroke-linejoin="round" stroke-miterlimit="10" d="
			M1.2,24.6c11.7,0,23.4,0,35.1,0"/>
		<path fill="none" stroke="#000000" stroke-width="2" stroke-linecap="round" stroke-linejoin="round" stroke-miterlimit="10" d="
			M-0.3,24.6c-3.4,0-6.8,0-10.1,0c-4.2,0-8.5,0-12.7,0c-0.2,0-0.4-0.1-0.6-0.2"/>
		<path fill="none" stroke="#000000" stroke-width="2" stroke-linecap="round" stroke-linejoin="round" stroke-miterlimit="10" d="
			M-24.1,24.4c-1.9,0.1-3.9,0.1-5.8,0.2c-1.5,0-3,0-4.5,0"/>
	</g>
</g>
<g id="Layer_3">
	<g>
		<path fill="none" stroke="#000000" stroke-width="2" stroke-linecap="round" stroke-linejoin="round" stroke-miterlimit="10" d="
			M0.6,3C3.8,9.4,7,15.8,10.3,22.1c4,7.9,8.1,15.7,12.1,23.5c0.4,0.7,0.8,1.4,1.1,2.1"/>
		<path fill="none" stroke="#000000" stroke-width="2" stroke-linecap="round" stroke-linejoin="round" stroke-miterlimit="10" d="
			M98.5,23.7c-4.9,0-9.8,0-14.7,0c-0.4,0-0.8,0.1-1.1,0.2"/>
		<path fill="none" stroke="#000000" stroke-width="2" stroke-linecap="round" stroke-linejoin="round" stroke-miterlimit="10" d="
			M10.5,23.5c-0.5,0.1-0.9,0.2-1.4,0.2c-4.6,0-9.2,0-13.7,0"/>
		<path fill="none" stroke="#000000" stroke-width="2" stroke-linecap="round" stroke-linejoin="round" stroke-miterlimit="10" d="
			M23.5,46.8c0-0.8,0.1-1.7,0.1-2.5c0-12.8,0-25.7,0-38.5c0-0.9,0.1-1.8,0.2-3.4C31.5,17.7,39.2,32.6,47,47.9c0.1-1.2,0.2-2.1,0.2-3
			c0-13,0-26,0-39c0-0.8,0.1-1.7,0.1-2.5"/>
		<path fill="none" stroke="#000000" stroke-width="2" stroke-linecap="round" stroke-linejoin="round" stroke-miterlimit="10" d="
			M70.5,2.1c1.8,3.4,3.6,6.7,5.4,10.2c4.5,8.9,9,17.8,13.5,26.7c1.5,2.9,2.9,5.8,4.4,8.8"/>
		<path fill="none" stroke="#000000" stroke-width="2" stroke-linecap="round" stroke-linejoin="round" stroke-miterlimit="10" d="
			M47.3,2.8c1.2,2.2,2.4,4.2,3.5,6.5c6.3,12.3,12.5,24.6,18.8,36.9c0.2,0.4,0.4,0.7,0.8,1.3c0-1.2,0.1-2,0.1-2.9c0-13,0-26,0-39
			c0-0.8,0.1-1.7,0.1-2.5"/>
		<path fill="none" stroke="#000000" stroke-width="2" stroke-linecap="round" stroke-linejoin="round" stroke-miterlimit="10" d="
			M23.5,23.7c-3.5,0-6.9,0-10.4,0c-0.4,0-0.8,0.1-1.1,0.2"/>
		<path fill="none" stroke="#000000" stroke-width="2" stroke-linecap="round" stroke-linejoin="round" stroke-miterlimit="10" d="
			M70.4,23.7c-3.5,0-6.9,0-10.4,0c-0.4,0-0.8,0.1-1.1,0.2"/>
		<path fill="none" stroke="#000000" stroke-width="2" stroke-linecap="round" stroke-linejoin="round" stroke-miterlimit="10" d="
			M47,23.7c-3.5,0-6.9,0-10.4,0c-0.4,0-0.8,0.1-1.1,0.2"/>
		<path fill="none" stroke="#000000" stroke-width="2" stroke-linecap="round" stroke-linejoin="round" stroke-miterlimit="10" d="
			M81.4,23.5c-0.6,0.1-1.3,0.2-1.9,0.2c-2.9,0-5.9,0-8.8,0"/>
		<path fill="none" stroke="#000000" stroke-width="2" stroke-linecap="round" stroke-linejoin="round" stroke-miterlimit="10" d="
			M34.2,23.5c-0.7,0.1-1.5,0.2-2.2,0.2c-2.8,0-5.6,0-8.4,0"/>
		<path fill="none" stroke="#000000" stroke-width="2" stroke-linecap="round" stroke-linejoin="round" stroke-miterlimit="10" d="
			M57.8,23.5c-0.9,0.1-1.8,0.2-2.7,0.2c-2.4,0-4.8,0-7.2,0"/>
	</g>
</g>
<g id="Layer_2" display="none">
	<g display="inline">
		<path fill="none" stroke="#000000" stroke-width="2" stroke-linecap="round" stroke-linejoin="round" stroke-miterlimit="10" d="
			M38.1,24.6c-0.7-7.8-1.6-15-3.4-20.8c-1.5-4.9-3.3-4.9-4.9-0.3C27.9,8.9,27,16,26.2,23.4c-0.8,7.4-1.4,15.1-3.2,21
			c-0.6,1.9-1.2,3.9-1.9,5c-1,1.6-2,0.7-3-1.6c-2.3-5.7-3.3-13.6-4.2-22"/>
		<path fill="none" stroke="#000000" stroke-width="2" stroke-linecap="round" stroke-linejoin="round" stroke-miterlimit="10" d="
			M62.3,24.6c-0.7-6.6-1.4-12.9-2.8-18.4c-2.2-8.7-4.4-7.1-6.2-0.5c-1.5,5.5-2.5,12.1-3.1,19.2"/>
		<path fill="none" stroke="#000000" stroke-width="2" stroke-linecap="round" stroke-linejoin="round" stroke-miterlimit="10" d="
			M38.2,25.4c0.8,7,1.7,13.8,3.3,19.3c0.3,1.1,0.7,2.1,1.1,3c1.8,3.7,3.3,1.3,4.4-2.7c1.6-5.6,2.5-12.4,3.1-19.5"/>
		<path fill="none" stroke="#000000" stroke-width="2" stroke-linecap="round" stroke-linejoin="round" stroke-miterlimit="10" d="
			M62.5,25.4c0.7,7.7,1.7,14.9,3.6,20.5c1.6,4.7,3.2,4.9,4.8,0c1.9-5.6,2.8-12.8,3.4-20.5"/>
		<path fill="none" stroke="#000000" stroke-width="2" stroke-linecap="round" stroke-linejoin="round" stroke-miterlimit="10" d="
			M26,24.9c-3.9,0-7.8,0-11.8,0c-0.1,0-0.2,0.4-0.4,0.7c-0.3-3-0.6-6.1-1-9c-0.7-5-1.4-9.9-2.8-13.4C8.3-1.1,7-0.1,5.5,3.8
			C3.8,8.4,3,15,2.1,21.3c-0.1,1-0.2,2-0.4,3"/>
		<path fill="none" stroke="#000000" stroke-width="2" stroke-linecap="round" stroke-linejoin="round" stroke-miterlimit="10" d="
			M80.5,24.9c-5.9,0.1-11.9,0.3-17.8,0.3c-3.7,0-7.4-0.3-11-0.3c-4.4,0-8.8,0.2-13.2,0.3c-3.8,0-7.6-0.2-11.4-0.3
			c-0.3,0-0.6-0.2-0.8-0.3"/>
		<path fill="none" stroke="#000000" stroke-width="2" stroke-linecap="round" stroke-linejoin="round" stroke-miterlimit="10" d="
			M-2.3,24.9c4.9,0,9.9,0,14.8,0c0.3,0,0.7-0.2,1-0.3"/>
	</g>
</g>
</svg>
